<svg xmlns="http://www.w3.org/2000/svg" width="24.072" height="15.203" viewBox="0 0 24.072 15.203">
  <path id="battery-half-solid-full" d="M51.637,130.534a.635.635,0,0,1,.633.633v8.868a.635.635,0,0,1-.633.633H35.167a.635.635,0,0,1-.633-.633v-8.868a.635.635,0,0,1,.633-.633ZM35.167,128A3.166,3.166,0,0,0,32,131.167v8.868a3.166,3.166,0,0,0,3.167,3.167h16.47a3.166,3.166,0,0,0,3.167-3.167v-1.9a1.266,1.266,0,0,0,1.267-1.267v-2.534a1.266,1.266,0,0,0-1.267-1.267v-1.9A3.166,3.166,0,0,0,51.637,128Zm2.217,4.434a.948.948,0,0,0-.95.95v4.434a.948.948,0,0,0,.95.95h5.7a.948.948,0,0,0,.95-.95v-4.434a.948.948,0,0,0-.95-.95Z" transform="translate(-32 -128)" fill="#37b49e"/>
</svg>
