<svg xmlns="http://www.w3.org/2000/svg" width="22.067" height="21.398" viewBox="0 0 22.067 21.398">
  <path id="charging-station-solid-full" d="M80.669,66.675A2.677,2.677,0,0,1,83.344,64h6.687a2.677,2.677,0,0,1,2.675,2.675v9.362a3.343,3.343,0,0,1,3.344,3.344v.5a.836.836,0,0,0,1.672,0V74.545a3.342,3.342,0,0,1-2.34-3.189V70.018a.671.671,0,0,1,.669-.669h.669V67.344a.669.669,0,0,1,1.337,0V69.35h1.337V67.344a.669.669,0,0,1,1.337,0V69.35h.669a.671.671,0,0,1,.669.669v1.337a3.342,3.342,0,0,1-2.34,3.189v5.337a2.842,2.842,0,0,1-5.684,0v-.5a1.336,1.336,0,0,0-1.337-1.337v5.408a1,1,0,0,1-.334,1.948H81a1,1,0,0,1-.334-1.948Zm3.456,5.253h1.63l-.873,2.8a.5.5,0,0,0,.8.522l3.954-3.427a.59.59,0,0,0-.385-1.036h-1.63l.873-2.8a.5.5,0,0,0-.8-.522l-3.954,3.427a.59.59,0,0,0,.384,1.036Z" transform="translate(-80 -64)" fill="#37b49e"/>
</svg>
