<svg xmlns="http://www.w3.org/2000/svg" xmlns:xlink="http://www.w3.org/1999/xlink" width="307" height="74.558" viewBox="0 0 239.87 59.53">
    <defs>
        <linearGradient id="a" data-name="GRADIENT CMYK" x1="43.1" y1="72.37" x2="-7.82" y2="6" gradientUnits="userSpaceOnUse">
            <stop offset="0.25" stop-color="#37b49e"/>
            <stop offset="0.95" stop-color="#355197"/>
        </linearGradient>
        <linearGradient id="b" x1="58.93" y1="60.22" x2="8.01" y2="-6.15" xlink:href="#a"/>
        <linearGradient id="c" x1="176.26" y1="38.22" x2="105.87" y2="38.22" xlink:href="#a"/>
        <linearGradient id="f" x1="176.26" y1="38.18" x2="105.87" y2="38.18" xlink:href="#a"/>
        <linearGradient id="i" x1="176.26" y1="39.15" x2="105.87" y2="39.15" xlink:href="#a"/>
        <linearGradient id="j" x1="176.26" y1="37.23" x2="105.87" y2="37.23" xlink:href="#a"/>
        <linearGradient id="o" x1="176.26" y1="38.26" x2="105.87" y2="38.26" xlink:href="#a"/>
        <linearGradient id="q" x1="176.26" y1="37.27" x2="105.87" y2="37.27" xlink:href="#a"/>
    </defs>
    <g>
        <g>
            <path d="M68.12,22.11v3.95A1.08,1.08,0,0,1,67,27.23H64.61a1.07,1.07,0,0,1-1.17-1.17V8a1.07,1.07,0,0,1,1.17-1.17H70.9c4.65,0,7.64,2.12,7.64,7.43,0,5.74-3.62,7.86-8.08,7.86Zm0-11.26v7.23H70c2.56,0,3.62-.84,3.62-3.83,0-2.75-1.06-3.4-3.62-3.4Z" fill="#355197"/>
            <path d="M80.25,17.35v-.87c0-6.26,3.08-9.88,9.37-9.88S99,10.22,99,16.48v.87c0,6.26-3.11,10.1-9.36,10.1S80.25,23.61,80.25,17.35Zm13.83,0v-.87c0-3.49-1-5.83-4.46-5.83S85.15,13,85.15,16.48v.87c0,3.51,1,6,4.47,6S94.08,20.86,94.08,17.35Z" fill="#355197"/>
            <path d="M113.7,6.82h2A1.2,1.2,0,0,1,117,8a86.81,86.81,0,0,0,3.67,15.1A92.93,92.93,0,0,0,124.12,8a1.19,1.19,0,0,1,1.25-1.17h2.8c.68,0,1.07.32,1.07.9a11.38,11.38,0,0,1-.17,1.22,94.67,94.67,0,0,1-5,18.29H117.7a55.2,55.2,0,0,1-3-10,55.59,55.59,0,0,1-3,10h-6.37a88.27,88.27,0,0,1-5-18.4,9.8,9.8,0,0,1-.17-1.11c0-.58.41-.9,1.06-.9h2.83A1.2,1.2,0,0,1,105.32,8c.7,4.9,2.17,11.86,3.45,15.1,1.33-3.24,2.91-10.2,3.65-15.1A1.21,1.21,0,0,1,113.7,6.82Z" fill="#355197"/>
            <path d="M131.74,8a1.07,1.07,0,0,1,1.17-1.17h10.85A1.05,1.05,0,0,1,144.91,8V9.68a1,1,0,0,1-1.15,1.17h-7.34V14.9h6.47a1.06,1.06,0,0,1,1.17,1.17v1.69a1.05,1.05,0,0,1-1.17,1.17h-6.47v1.93c0,1.69.43,2.34,2.12,2.34h5.63a1.06,1.06,0,0,1,1.17,1.17v1.69a1.07,1.07,0,0,1-1.17,1.17h-7.32c-3.4,0-5.11-2.12-5.11-5.53Z" fill="#355197"/>
            <path d="M156.31,21.16h-2.86v4.9a1.08,1.08,0,0,1-1.17,1.17h-2.34a1.07,1.07,0,0,1-1.17-1.17V8a1.07,1.07,0,0,1,1.17-1.17h6.28c4.66,0,7.65,1.49,7.65,6.8a6.46,6.46,0,0,1-3.29,6,18.41,18.41,0,0,1,4.27,6.48,1.2,1.2,0,0,1,.08.43c0,.47-.41.74-1,.74h-2.88a1.49,1.49,0,0,1-1.44-1.17C159,24.42,157.61,22,156.31,21.16Zm-2.86-10.31v6.39h1.9c2.56,0,3.62-.84,3.62-3.4s-1.06-3-3.62-3Z" fill="#355197"/>
            <path d="M172.2,27.23c-3.4,0-5.12-2.12-5.12-5.53V8a1.07,1.07,0,0,1,1.17-1.17h2.34A1.07,1.07,0,0,1,171.76,8V20.86c0,1.69.44,2.34,2.12,2.34h4.36a1.05,1.05,0,0,1,1.17,1.17v1.69a1.06,1.06,0,0,1-1.17,1.17Z" fill="#355197"/>
            <path d="M193.5,22.76h-7c-.3,1.2-.6,2.32-.82,3.3a1.35,1.35,0,0,1-1.36,1.17h-2.36c-.63,0-1-.33-1-.85a1.28,1.28,0,0,1,.06-.32c.87-3.62,1.25-4.68,2.09-7.54a94.08,94.08,0,0,1,4.25-11.7H193a90.34,90.34,0,0,1,4.27,11.7c.85,2.86,1.23,3.92,2.1,7.54a1.92,1.92,0,0,1,.05.32c0,.52-.41.85-1,.85h-2.81a1.34,1.34,0,0,1-1.36-1.17C194,25.08,193.77,24,193.5,22.76Zm-6-4.05h5a73.51,73.51,0,0,0-2.43-8.16C189.53,11.91,188.52,15.23,187.54,18.71Z" fill="#355197"/>
            <path d="M206.67,15.12V26.06a1.07,1.07,0,0,1-1.17,1.17h-2.34A1.08,1.08,0,0,1,202,26.06V8a1.07,1.07,0,0,1,1.17-1.17h2.23a1.36,1.36,0,0,1,1.28.62l7.24,11.49V8a1.06,1.06,0,0,1,1.17-1.17h2.34A1.05,1.05,0,0,1,218.56,8V26.06a1.06,1.06,0,0,1-1.14,1.17h-2.23a1.3,1.3,0,0,1-1.25-.63Z" fill="#355197"/>
            <path d="M223.59,27.23a1.08,1.08,0,0,1-1.17-1.17V8a1.07,1.07,0,0,1,1.17-1.17h6.48c6.61,0,9.8,3.62,9.8,8.71v2.55c0,5.31-3,9.15-9.8,9.15Zm3.52-16.38V23.2h3c3.21,0,4.9-2.15,4.9-5.55V16c0-3.18-1.69-5.11-4.9-5.11Z" fill="#355197"/>
        </g>
        <g>
            <path d="M5.21,59.53a5.22,5.22,0,0,0,5.22-5.22V40.06A12.22,12.22,0,0,1,22.64,27.85H29a5.22,5.22,0,1,0,0-10.43H22.64A22.67,22.67,0,0,0,0,40.06V54.31A5.22,5.22,0,0,0,5.21,59.53Z" fill="url(#a)"/>
            <path d="M.66,5.21a5.22,5.22,0,0,0,5.21,5.22H29a12.21,12.21,0,0,1,0,24.42H22.64a5.21,5.21,0,1,0,0,10.42H29A22.64,22.64,0,1,0,29,0H5.87A5.21,5.21,0,0,0,.66,5.21Z" fill="url(#b)"/>
        </g>
        <g>
            <path d="M70,36.92a6.35,6.35,0,0,1-1.31,4h-.91a5.29,5.29,0,0,1-1-1.85,5.65,5.65,0,0,1-1,1.85h-.92a6.36,6.36,0,0,1-1.3-4V35.84a.28.28,0,0,1,.3-.3h.23a.29.29,0,0,1,.31.3v1.08a5.78,5.78,0,0,0,1,3.37,5.77,5.77,0,0,0,1-3.37V35.84a.28.28,0,0,1,.3-.3h.23a.29.29,0,0,1,.31.3v1.08a5.77,5.77,0,0,0,1,3.37,5.86,5.86,0,0,0,1-3.37V35.84a.29.29,0,0,1,.31-.3h.23a.29.29,0,0,1,.31.3Z" fill="url(#c)"/>
            <path d="M71.61,38.84V37.77a2.17,2.17,0,0,1,2.29-2.31c1.07,0,1.84.46,1.84,1.54a1.47,1.47,0,0,1-1.68,1.53H72.45v.31a1.27,1.27,0,0,0,1.45,1.38A4,4,0,0,0,75.13,40l.14,0c.1,0,.16,0,.16.19v.22c0,.19,0,.26-.18.34A4,4,0,0,1,73.9,41,2,2,0,0,1,71.61,38.84Zm2.21-1c.85,0,1.08-.31,1.08-.84s-.39-.77-1-.77c-.92,0-1.45.46-1.45,1.54v.07Z" fill="url(#c)"/>
            <path d="M80.41,38.84V37.77a2.18,2.18,0,0,1,2.3-2.31c1.07,0,1.83.46,1.83,1.54a1.47,1.47,0,0,1-1.68,1.53H81.25v.31c0,1,.61,1.38,1.46,1.38A3.84,3.84,0,0,0,83.93,40l.14,0c.1,0,.17,0,.17.19v.22c0,.19,0,.26-.19.34a3.93,3.93,0,0,1-1.34.28A2,2,0,0,1,80.41,38.84Zm2.22-1c.84,0,1.08-.31,1.08-.84s-.39-.77-1-.77c-.93,0-1.46.46-1.46,1.54v.07Z" fill="url(#c)"/>
            <path d="M87.3,36.54l.38-.38a2.11,2.11,0,0,1,1.53-.7c.85,0,1.46.46,1.46,1.85V40.6a.28.28,0,0,1-.31.31h-.22a.29.29,0,0,1-.32-.31V37.31c0-.85-.38-1.08-.83-1.08s-1.08.54-1.39.84l-.3.31V40.6a.29.29,0,0,1-.31.31h-.23a.28.28,0,0,1-.3-.31V35.84a.27.27,0,0,1,.3-.3H87a.29.29,0,0,1,.31.3Z" fill="url(#f)"/>
            <path d="M92.62,38.84V37.77a2.18,2.18,0,0,1,2.3-2.31c1.07,0,1.83.46,1.83,1.54a1.47,1.47,0,0,1-1.68,1.53H93.46v.31c0,1,.61,1.38,1.46,1.38A4,4,0,0,0,96.14,40l.14,0c.1,0,.17,0,.17.19v.22c0,.19,0,.26-.19.34a4,4,0,0,1-1.34.28A2,2,0,0,1,92.62,38.84Zm2.22-1c.84,0,1.08-.31,1.08-.84s-.4-.77-1-.77c-.93,0-1.46.46-1.46,1.54v.07Z" fill="url(#c)"/>
            <path d="M101.12,36.46a1.45,1.45,0,0,0-1,.39l-.61.6V40.6a.29.29,0,0,1-.31.31H99a.28.28,0,0,1-.3-.31V35.84a.27.27,0,0,1,.3-.3h.23a.29.29,0,0,1,.31.3v.89l.08-.12a1.89,1.89,0,0,1,1.57-1.07h0a.28.28,0,0,1,.3.3v.32a.28.28,0,0,1-.3.3Z" fill="url(#c)"/>
            <path d="M106.16,40.06l-.07,0a3.49,3.49,0,0,1-1.69.5c-.92,0-1.68-.61-1.68-2V38.3a2.6,2.6,0,0,1,2.68-2.76h1.3a.29.29,0,0,1,.31.3v4.38c0,1.84-1.07,2.53-2.92,2.53h-.61a.28.28,0,0,1-.31-.31v-.15a.29.29,0,0,1,.31-.31h.61c1.47,0,2.07-.45,2.07-1.69Zm0-.68V36.31h-.76a1.77,1.77,0,0,0-1.84,2v.35c0,.84.39,1.19,1,1.19a3.47,3.47,0,0,0,1.47-.38Z" fill="url(#i)"/>
            <path d="M110.33,40.6a.28.28,0,0,1-.3.31h-.23a.29.29,0,0,1-.31-.31V36.31h-.6a.27.27,0,0,1-.3-.31v-.16a.28.28,0,0,1,.29-.3H110a.27.27,0,0,1,.3.3Zm0-6.43a.27.27,0,0,1-.3.3h-.23a.29.29,0,0,1-.31-.3v-.32a.29.29,0,0,1,.31-.3H110a.27.27,0,0,1,.3.3Z" fill="url(#j)"/>
            <path d="M112.59,40.91a.29.29,0,0,1-.3-.31v-.15a.49.49,0,0,1,.15-.39,23,23,0,0,0,2.87-3.75h-2.55a.28.28,0,0,1-.32-.31v-.16a.28.28,0,0,1,.31-.3H116a.28.28,0,0,1,.3.3V36a.74.74,0,0,1-.07.38,17.25,17.25,0,0,1-2.84,3.76H116a.29.29,0,0,1,.31.31v.15a.29.29,0,0,1-.31.31Z" fill="url(#c)"/>
            <path d="M117.73,38.84V37.77A2.17,2.17,0,0,1,120,35.46c1.07,0,1.84.46,1.84,1.54a1.47,1.47,0,0,1-1.68,1.53h-1.61v.31A1.27,1.27,0,0,0,120,40.22a4,4,0,0,0,1.23-.24l.14,0c.09,0,.16,0,.16.19v.22c0,.19,0,.26-.18.34A4,4,0,0,1,120,41,2,2,0,0,1,117.73,38.84Zm2.21-1c.85,0,1.08-.31,1.08-.84s-.39-.77-1-.77c-.92,0-1.45.46-1.45,1.54v.07Z" fill="url(#c)"/>
            <path d="M130.21,39.52l-.38.39a2.13,2.13,0,0,1-1.56.69c-.89,0-1.44-.49-1.44-1.84V35.84a.29.29,0,0,1,.31-.3h.23a.29.29,0,0,1,.31.3v2.92c0,.81.33,1.08.82,1.08s1.09-.54,1.4-.85l.31-.31V35.84a.28.28,0,0,1,.3-.3h.23a.28.28,0,0,1,.31.3v4.38c0,1.84-1.08,2.53-2.91,2.53h-.62a.28.28,0,0,1-.3-.31v-.15a.28.28,0,0,1,.3-.31h.62c1.45,0,2.07-.45,2.07-1.69Z" fill="url(#i)"/>
            <path d="M133,38.15c0-1.61.76-2.69,2.33-2.69s2.34,1.08,2.34,2.69S136.9,41,135.33,41,133,39.91,133,38.15Zm3.82,0c0-1.19-.34-1.92-1.49-1.92s-1.49.73-1.49,1.92.34,2.07,1.49,2.07S136.82,39.34,136.82,38.15Z" fill="url(#c)"/>
            <path d="M143,39.91l-.38.39A2.13,2.13,0,0,1,141,41c-.84,0-1.45-.46-1.45-1.85v-3.3a.29.29,0,0,1,.31-.3h.23a.29.29,0,0,1,.31.3v3.3c0,.85.38,1.08.84,1.08s1.07-.54,1.37-.84l.32-.31V35.84a.28.28,0,0,1,.3-.3h.23a.29.29,0,0,1,.31.3V40.6a.29.29,0,0,1-.31.31h-.23a.28.28,0,0,1-.3-.31Z" fill="url(#o)"/>
            <path d="M148.58,36.46a1.47,1.47,0,0,0-1,.39l-.61.6V40.6a.29.29,0,0,1-.31.31h-.23a.28.28,0,0,1-.3-.31V35.84a.28.28,0,0,1,.3-.3h.23a.29.29,0,0,1,.31.3v.89l.08-.12a1.89,1.89,0,0,1,1.57-1.07h0a.28.28,0,0,1,.3.3v.32a.28.28,0,0,1-.3.3Z" fill="url(#c)"/>
            <path d="M153.28,39.14V38.3a2.76,2.76,0,0,1,2.84-2.76h.61V33.85a.28.28,0,0,1,.3-.3h.24a.28.28,0,0,1,.3.3V40.6a.29.29,0,0,1-.3.31H157a.29.29,0,0,1-.3-.31v-.69l-.38.38a2.13,2.13,0,0,1-1.54.7C154,41,153.29,40.45,153.28,39.14Zm.85,0c0,.85.38,1.08.83,1.08a2.56,2.56,0,0,0,1.46-.84l.31-.32V36.31h-.61a1.88,1.88,0,0,0-2,2Z" fill="url(#q)"/>
            <path d="M162.36,36.46a1.47,1.47,0,0,0-1,.39l-.61.6V40.6a.29.29,0,0,1-.31.31h-.23a.28.28,0,0,1-.3-.31V35.84a.28.28,0,0,1,.3-.3h.23a.29.29,0,0,1,.31.3v.89l.08-.12a1.89,1.89,0,0,1,1.57-1.07h0a.28.28,0,0,1,.3.3v.32a.28.28,0,0,1-.3.3Z" fill="url(#c)"/>
            <path d="M165.3,40.6a.28.28,0,0,1-.31.31h-.22a.29.29,0,0,1-.32-.31V36.31h-.6a.27.27,0,0,1-.3-.31v-.16a.28.28,0,0,1,.29-.3H165a.28.28,0,0,1,.31.3Zm0-6.43a.28.28,0,0,1-.31.3h-.22a.29.29,0,0,1-.32-.3v-.32a.29.29,0,0,1,.32-.3H165a.28.28,0,0,1,.31.3Z" fill="url(#j)"/>
            <path d="M171.31,36.92a6.11,6.11,0,0,1-1.61,4h-.92a6.07,6.07,0,0,1-1.53-4V35.84a.28.28,0,0,1,.3-.3h.23a.28.28,0,0,1,.31.3v1.08a5,5,0,0,0,1.19,3.37,5,5,0,0,0,1.19-3.37V35.84a.28.28,0,0,1,.3-.3H171a.29.29,0,0,1,.31.3Z" fill="url(#c)"/>
            <path d="M172.91,38.84V37.77a2.18,2.18,0,0,1,2.3-2.31c1.07,0,1.83.46,1.83,1.54a1.47,1.47,0,0,1-1.67,1.53h-1.61v.31a1.27,1.27,0,0,0,1.45,1.38,4,4,0,0,0,1.23-.24l.13,0c.1,0,.17,0,.17.19v.22c0,.19,0,.26-.19.34a3.93,3.93,0,0,1-1.34.28A2,2,0,0,1,172.91,38.84Zm2.22-1c.84,0,1.08-.31,1.08-.84s-.39-.77-1-.77c-.92,0-1.45.46-1.45,1.54v.07Z" fill="url(#c)"/>
        </g>
    </g>
</svg>
