<svg xmlns="http://www.w3.org/2000/svg" width="26" height="20.222" viewBox="0 0 26 20.222">
  <path id="network-wired-solid-full" d="M43.194,98.528h3.611v2.167H43.194ZM42.833,96a2.167,2.167,0,0,0-2.167,2.167v2.889a2.167,2.167,0,0,0,2.167,2.167h.722v1.444H33.444a1.444,1.444,0,1,0,0,2.889h4.333V109h-.722a2.167,2.167,0,0,0-2.167,2.167v2.889a2.167,2.167,0,0,0,2.167,2.167h4.333a2.167,2.167,0,0,0,2.167-2.167v-2.889A2.167,2.167,0,0,0,41.389,109h-.722v-1.444h8.667V109h-.722a2.167,2.167,0,0,0-2.167,2.167v2.889a2.167,2.167,0,0,0,2.167,2.167h4.333a2.167,2.167,0,0,0,2.167-2.167v-2.889A2.167,2.167,0,0,0,52.944,109h-.722v-1.444h4.333a1.444,1.444,0,1,0,0-2.889H46.444v-1.444h.722a2.167,2.167,0,0,0,2.167-2.167V98.167A2.167,2.167,0,0,0,47.167,96Zm9.389,15.528h.361v2.167H48.972v-2.167Zm-11.556,0h.361v2.167H37.417v-2.167Z" transform="translate(-32 -96)" fill="#37b49e"/>
</svg>
