<svg xmlns="http://www.w3.org/2000/svg" width="23.448" height="20.091" viewBox="0 0 23.448 20.091">
  <path id="solar-panel-solid-full" d="M44.805,96a2.678,2.678,0,0,0-2.616,2.1l-2.08,9.376a2.677,2.677,0,0,0,2.612,3.261h7.706v2.679H47.748a1.339,1.339,0,1,0,0,2.679h8.036a1.339,1.339,0,1,0,0-2.679H53.105v-2.679h7.706a2.68,2.68,0,0,0,2.616-3.261L61.342,98.1A2.673,2.673,0,0,0,58.73,96Zm5.182,2.679h3.566l.306,3.683H49.681Zm-2.323,3.683H43.989l.82-3.683h3.164l-.306,3.683Zm-4.123,2.009H47.5l-.306,3.683H42.725l.82-3.683Zm5.969,0h4.512l.306,3.683H49.2l.306-3.683Zm6.529,0h3.955l.82,3.683H56.349l-.306-3.683Zm3.508-2.009H55.872l-.306-3.683H58.73l.82,3.683Z" transform="translate(-40.044 -96)" fill="#37b49e"/>
</svg>
